HIERARCHY
ROOT Hips
{
	OFFSET 0.000000 0.000000 0.000000
	CHANNELS 6 Xposition Yposition Zposition Xrotation Yrotation Zrotation
	JOINT LeftUpLeg_virtual
	{
		OFFSET 0.000000 0.000000 0.000000
		CHANNELS 3 Xrotation Yrotation Zrotation
		JOINT LeftUpLeg
		{
			OFFSET 15.427100 -6.655098 0.678600
			CHANNELS 3 Xrotation Yrotation Zrotation
			JOINT LeftLeg
			{
				OFFSET 4.081073 -39.591068 13.024000
				CHANNELS 3 Xrotation Yrotation Zrotation
				JOINT LeftFoot
				{
					OFFSET -4.081074 -37.707932 -15.979700
					CHANNELS 3 Xrotation Yrotation Zrotation
					JOINT LeftToeBase
					{
						OFFSET 5.346399 -15.068900 20.645000
						CHANNELS 3 Xrotation Yrotation Zrotation
						JOINT LeftToe_End
						{
							OFFSET 2.754700 0.931300 11.300900
							CHANNELS 3 Xrotation Yrotation Zrotation
							End Site
							{
								OFFSET 0 0 0
							}
						}
					}
				}
			}
		}
	}
	JOINT RightUpLeg_virtual
	{
		OFFSET 0.000000 0.000000 0.000000
		CHANNELS 3 Xrotation Yrotation Zrotation
		JOINT RightUpLeg
		{
			OFFSET -15.569500 -6.655098 0.678600
			CHANNELS 3 Xrotation Yrotation Zrotation
			JOINT RightLeg
			{
				OFFSET -4.081825 -39.591045 13.023800
				CHANNELS 3 Xrotation Yrotation Zrotation
				JOINT RightFoot
				{
					OFFSET 4.081824 -37.707954 -15.979600
					CHANNELS 3 Xrotation Yrotation Zrotation
					JOINT RightToeBase
					{
						OFFSET -5.346400 -15.068900 20.645000
						CHANNELS 3 Xrotation Yrotation Zrotation
						JOINT RightToe_End
						{
							OFFSET -2.754700 0.931300 11.300900
							CHANNELS 3 Xrotation Yrotation Zrotation
							End Site
							{
								OFFSET 0 0 0
							}
						}
					}
				}
			}
		}
	}
	JOINT Spine_virtual
	{
		OFFSET 0.000000 0.000000 0.000000
		CHANNELS 3 Xrotation Yrotation Zrotation
		JOINT Spine
		{
			OFFSET -0.279200 12.230698 -2.892100
			CHANNELS 3 Xrotation Yrotation Zrotation
			JOINT Spine1
			{
				OFFSET -0.232667 10.192268 -1.242267
				CHANNELS 3 Xrotation Yrotation Zrotation
				JOINT Spine1_split
				{
					OFFSET -0.232667 10.192268 -1.242267
					CHANNELS 3 Xrotation Yrotation Zrotation
					JOINT Spine2
					{
						OFFSET -0.232667 10.192268 -1.242267
						CHANNELS 3 Xrotation Yrotation Zrotation
						JOINT Neck_virtual
						{
							OFFSET 0.000000 0.000000 0.000000
							CHANNELS 3 Xrotation Yrotation Zrotation
							JOINT Neck
							{
								OFFSET -0.418800 17.814194 8.416900
								CHANNELS 3 Xrotation Yrotation Zrotation
								JOINT Head
								{
									OFFSET 0.000000 7.031097 3.806800
									CHANNELS 3 Xrotation Yrotation Zrotation
									JOINT HeadTop_End
									{
										OFFSET 0.000000 24.646606 12.978600
										CHANNELS 3 Xrotation Yrotation Zrotation
										End Site
										{
											OFFSET 0 0 0
										}
									}
								}
							}
						}
						JOINT LeftShoulder_virtual
						{
							OFFSET 0.000000 0.000000 0.000000
							CHANNELS 3 Xrotation Yrotation Zrotation
							JOINT LeftShoulder
							{
								OFFSET 8.476499 7.247704 -3.868750
								CHANNELS 3 Xrotation Yrotation Zrotation
								JOINT LeftShoulder_split
								{
									OFFSET 8.476499 7.247704 -3.868750
									CHANNELS 3 Xrotation Yrotation Zrotation
									JOINT LeftArm
									{
										OFFSET 9.308998 -2.777710 0.208600
										CHANNELS 3 Xrotation Yrotation Zrotation
										JOINT LeftForeArm
										{
											OFFSET 29.972298 0.000000 0.000000
											CHANNELS 3 Xrotation Yrotation Zrotation
											JOINT LeftHand
											{
												OFFSET 26.026505 0.000000 0.000000
												CHANNELS 3 Xrotation Yrotation Zrotation
												End Site
												{
													OFFSET 0 0 0
												}
											}
										}
									}
								}
							}
						}
						JOINT RightShoulder_virtual
						{
							OFFSET 0.000000 0.000000 0.000000
							CHANNELS 3 Xrotation Yrotation Zrotation
							JOINT RightShoulder
							{
								OFFSET -7.570500 7.247704 -3.868750
								CHANNELS 3 Xrotation Yrotation Zrotation
								JOINT RightShoulder_split
								{
									OFFSET -7.570500 7.247704 -3.868750
									CHANNELS 3 Xrotation Yrotation Zrotation
									JOINT RightArm
									{
										OFFSET -9.308998 -2.777710 0.208500
										CHANNELS 3 Xrotation Yrotation Zrotation
										JOINT RightForeArm
										{
											OFFSET -29.972300 0.000000 0.000000
											CHANNELS 3 Xrotation Yrotation Zrotation
											JOINT RightHand
											{
												OFFSET -26.026505 0.000000 0.000000
												CHANNELS 3 Xrotation Yrotation Zrotation
												End Site
												{
													OFFSET 0 0 0
												}
											}
										}
									}
								}
							}
						}
					}
				}
			}
		}
	}
}
MOTION
Frames: 11
Frame Time: 0.03333333
-3.926795 90.492424 -4.560640 0.000000 0.000000 0.000000 -8.408985 -3.027613 7.968982 3.371579 14.665811 -6.363466 8.915439 2.628326 -1.567860 -0.630272 -1.577683 -0.564105 -4.395362 0.166242 -0.057117 0.000000 0.000000 0.000000 -8.367277 -2.350215 7.809539 -5.255599 -9.352750 -28.064674 28.334464 5.930724 6.501058 -13.438349 -15.567268 5.382899 -5.733772 0.326936 -0.377280 0.000000 0.000000 0.000000 -8.568207 -4.318140 7.349028 2.827816 -0.947835 -6.126644 3.918960 2.046372 -3.627875 2.081543 -1.725534 1.862880 0.000000 0.000000 0.000000 3.439426 1.649099 -3.364313 -1.658113 -2.088261 -5.457786 -0.644048 -12.599189 3.726613 0.000000 0.000000 0.000000 3.048770 1.382469 -3.694323 5.420742 -8.111530 -16.996798 -5.102766 4.434303 -6.000652 19.527707 -0.853318 -46.722698 0.849950 -41.821979 -5.100862 0.000000 0.000000 0.000000 1.832238 1.783456 -2.413176 8.506370 5.125958 4.241267 -0.732977 4.970998 1.476214 -0.122143 -7.917028 69.438654 17.447595 32.345119 2.588014 0.000000 0.000000 0.000000 
-4.514994 90.861237 -3.629175 0.000000 0.000000 0.000000 -8.450925 -2.927218 7.704597 3.115465 13.644647 -5.839743 9.588342 2.593572 -1.437928 0.029388 -1.141362 -0.347342 -5.363455 0.084612 0.203019 0.000000 0.000000 0.000000 -8.388185 -2.143588 7.643205 -4.166500 -10.025571 -27.475493 27.104045 5.573035 5.927134 -13.384677 -14.721576 6.910793 -7.619949 0.355802 -0.503123 0.000000 0.000000 0.000000 -8.862510 -4.019140 6.769234 2.696967 -0.960935 -6.222602 4.819740 2.069288 -3.300499 1.852861 -1.042883 1.914381 0.000000 0.000000 0.000000 4.169938 1.748627 -3.108263 -2.469040 -1.956228 -5.139599 -2.416586 -11.208358 3.397960 0.000000 0.000000 0.000000 4.090806 1.419259 -3.272267 5.655655 -8.907043 -15.155333 -3.019972 2.355759 -3.330770 20.503314 -3.696545 -48.039975 0.741886 -43.042435 -4.964461 0.000000 0.000000 0.000000 2.532206 1.843157 -2.190390 7.915405 5.645950 4.343437 -1.050620 5.848008 1.220494 0.255797 -5.083240 68.148035 18.171821 35.906684 1.547215 0.000000 0.000000 0.000000 
-5.123119 91.535698 -2.988689 0.000000 0.000000 0.000000 -8.697545 -2.895820 7.221016 2.944973 12.535725 -5.280827 10.475563 2.387360 -1.334185 0.426110 -0.275583 0.337002 -6.608696 -0.000439 0.596422 0.000000 0.000000 0.000000 -8.471375 -2.058588 7.251227 -2.989792 -10.631393 -26.626960 25.113552 4.743387 5.053921 -12.957696 -13.560323 7.835654 -7.604294 0.399922 -0.513195 0.000000 0.000000 0.000000 -9.237026 -3.702906 5.855539 2.759797 -0.647705 -6.137948 6.394275 2.104260 -2.686537 1.451631 -0.500685 1.458813 0.000000 0.000000 0.000000 5.860809 1.909689 -2.605926 -4.879936 -1.593193 -5.277854 -4.692402 -9.419287 2.614310 0.000000 0.000000 0.000000 5.840069 1.642861 -2.590897 5.747820 -10.540310 -12.263600 -0.839519 0.891173 -1.665919 25.232551 -8.965645 -45.893878 -3.035591 -48.912620 -6.213813 0.000000 0.000000 0.000000 4.137490 1.956109 -1.752699 7.295501 6.459935 3.983076 -1.242556 6.289930 1.172570 2.058986 0.674397 65.649442 20.304219 38.866242 -2.100689 0.000000 0.000000 0.000000 
-5.545513 92.241570 -2.622646 0.000000 0.000000 0.000000 -9.072872 -2.967128 6.610207 2.881842 11.710638 -4.880695 11.471230 2.064398 -1.315547 0.565321 0.978359 1.342086 -7.374163 -0.048185 0.841059 0.000000 0.000000 0.000000 -8.523761 -2.006549 6.748080 -2.736152 -10.746813 -25.878924 23.968068 3.849694 4.234493 -11.341251 -12.264529 8.594535 -6.709168 0.420598 -0.496114 0.000000 0.000000 0.000000 -9.805685 -3.390398 4.898254 3.159514 -0.171252 -5.918108 8.380901 2.096816 -1.906035 1.039844 -0.878376 1.352082 0.000000 0.000000 0.000000 8.196007 2.017956 -1.968117 -8.364060 -0.913628 -5.800638 -7.430358 -7.249166 1.390143 0.000000 0.000000 0.000000 7.896053 1.927658 -1.810721 5.711402 -12.851862 -8.745146 0.541755 0.591661 -2.417706 32.136204 -14.221740 -40.490413 -10.907239 -58.283780 -9.474542 0.000000 0.000000 0.000000 6.378405 2.049994 -1.208393 6.555715 7.646901 3.516980 -1.162075 5.910638 1.084406 5.105262 7.003444 61.968237 23.626108 41.134077 -7.990733 0.000000 0.000000 0.000000 
-5.846459 92.953735 -2.414043 0.000000 0.000000 0.000000 -9.532275 -2.949895 5.995333 2.739110 11.341058 -4.603490 12.315593 1.485873 -1.465063 0.847192 2.305160 1.994991 -7.717278 -0.008921 0.918589 0.000000 0.000000 0.000000 -8.523474 -1.832849 6.180099 -4.087744 -9.993201 -25.498585 25.342368 3.486495 3.696785 -8.183842 -10.817415 10.004270 -6.712874 0.421994 -0.528525 0.000000 0.000000 0.000000 -10.455721 -3.009969 4.097768 3.879068 0.220273 -5.613426 10.458196 2.008507 -1.146790 -0.079214 -1.107994 1.014757 0.000000 0.000000 0.000000 10.770813 1.983324 -1.348183 -12.069750 0.079944 -6.537138 -10.704566 -4.910592 -0.199511 0.000000 0.000000 0.000000 9.958659 2.127869 -1.121071 5.565875 -15.671215 -5.384059 1.511018 0.680359 -4.845762 39.994162 -17.786832 -32.886073 -22.422983 -68.562778 -15.195371 0.000000 0.000000 0.000000 8.867084 2.044533 -0.694927 5.785104 9.359504 3.614616 -1.230753 5.002936 0.497883 9.107201 12.121110 57.147722 27.719884 43.679695 -15.724779 0.000000 0.000000 0.000000 
-5.949345 93.778885 -2.578556 0.000000 0.000000 0.000000 -9.867156 -2.795372 5.470942 2.431561 11.416441 -4.377335 12.840973 0.717278 -1.727455 1.747321 3.436411 2.236897 -8.019474 0.075513 0.915799 0.000000 0.000000 0.000000 -8.438023 -1.413476 5.585063 -7.146706 -8.062593 -25.253474 29.828201 3.820142 3.130983 -4.643283 -9.219167 11.622297 -7.653190 0.411006 -0.595030 0.000000 0.000000 0.000000 -10.876956 -2.600076 3.566072 4.807129 0.396428 -5.296060 12.332798 1.810044 -0.596654 -1.250078 -1.306673 0.803137 0.000000 0.000000 0.000000 13.155635 1.828800 -0.874331 -15.080974 1.303537 -7.389063 -14.336837 -2.684081 -1.844310 0.000000 0.000000 0.000000 11.755190 2.202565 -0.625125 5.252033 -18.881382 -3.049157 1.880595 0.669828 -7.955173 47.834342 -18.901635 -24.672935 -36.265477 -77.829391 -23.038375 0.000000 0.000000 0.000000 11.110359 1.948298 -0.325679 4.988940 11.647131 4.808675 -1.095890 4.171011 -0.759883 13.022024 14.302600 51.399523 32.583035 47.476863 -25.064653 0.000000 0.000000 0.000000 
-5.907597 94.800171 -3.072371 0.000000 0.000000 0.000000 -9.879904 -2.587886 4.955251 1.785551 11.735978 -3.902818 12.984387 -0.045057 -2.085467 3.509231 4.263437 2.420341 -8.281463 0.129038 0.847678 0.000000 0.000000 0.000000 -8.246702 -0.907635 4.870469 -11.333411 -5.283321 -24.660647 36.858470 4.429682 2.437909 -2.308735 -7.705364 12.227829 -7.597740 0.367306 -0.522603 0.000000 0.000000 0.000000 -10.770971 -2.129423 3.169298 5.796549 0.372790 -4.891099 13.831185 1.582069 -0.338635 -1.646725 -1.047346 0.878645 0.000000 0.000000 0.000000 14.978656 1.634609 -0.637348 -16.479974 2.496475 -8.266158 -17.960138 -0.668098 -3.330583 0.000000 0.000000 0.000000 13.164831 2.162856 -0.419288 4.672340 -21.905663 -2.513646 1.620097 0.030959 -9.847159 54.060619 -18.816620 -16.923144 -54.605006 -85.940295 -36.144644 0.000000 0.000000 0.000000 12.888210 1.814842 -0.188457 4.166284 14.167612 7.025054 -0.316390 3.761500 -2.372176 15.602698 13.055930 45.365054 39.147041 53.275062 -36.569857 0.000000 0.000000 0.000000 
-5.935424 96.005539 -3.669832 0.000000 0.000000 0.000000 -9.521746 -2.290360 4.305938 0.443230 11.998477 -2.848231 12.941941 -0.822299 -2.465021 6.138887 4.619668 2.405249 -8.120724 0.162413 0.593587 0.000000 0.000000 0.000000 -8.011265 -0.279439 4.034412 -16.028808 -2.340864 -23.248333 44.851820 4.643878 1.585110 -1.902191 -6.607595 11.046785 -5.652774 0.353105 -0.220263 0.000000 0.000000 0.000000 -9.866450 -1.566480 2.714225 6.680872 0.208695 -4.301071 14.875218 1.451664 -0.392192 -1.559416 -0.137465 0.937574 0.000000 0.000000 0.000000 16.150319 1.553522 -0.660127 -15.622803 3.406518 -9.144040 -20.969352 0.838879 -4.407189 0.000000 0.000000 0.000000 14.257005 2.142781 -0.457205 3.611368 -24.212590 -4.226551 0.601497 -0.984501 -9.789868 57.778141 -17.970702 -9.862794 138.846777 -86.950268 161.304220 0.000000 0.000000 0.000000 14.094904 1.771923 -0.291884 3.459596 16.645822 10.016864 0.663539 3.411100 -3.800703 16.213078 9.298655 39.205778 50.191368 60.998965 -52.486227 0.000000 0.000000 0.000000 
-6.126471 97.125885 -4.382141 0.000000 0.000000 0.000000 -8.798876 -1.927983 3.437558 -1.842923 11.928148 -1.192916 13.149953 -1.473867 -2.723069 9.089816 4.616023 2.111692 -7.348489 0.187045 -0.008937 0.000000 0.000000 0.000000 -7.738763 0.196999 3.148803 -20.704269 0.085533 -21.012087 51.868067 4.216057 0.731379 -3.064772 -5.949047 8.610030 -3.342234 0.381294 0.127488 0.000000 0.000000 0.000000 -8.341503 -1.014250 2.092047 7.362140 0.095883 -3.470728 15.532496 1.529567 -0.630869 -0.749108 0.497963 1.273798 0.000000 0.000000 0.000000 16.790210 1.734884 -0.859246 -12.057207 3.848004 -10.053874 -22.582697 1.744644 -5.061059 0.000000 0.000000 0.000000 15.215851 2.272747 -0.581440 2.244480 -25.375698 -7.569353 -0.509810 -2.105758 -8.250983 58.278507 -15.678511 -4.424626 130.839309 -81.083792 155.488232 0.000000 0.000000 0.000000 14.812937 1.916011 -0.549169 2.940006 18.803386 13.253087 1.478157 3.001361 -4.612192 14.779334 4.251701 33.074570 72.499972 69.049558 -78.942104 0.000000 0.000000 0.000000 
-6.586617 97.951576 -4.999132 0.000000 0.000000 0.000000 -7.868030 -1.684362 2.383402 -4.518689 11.401020 0.668514 13.829848 -1.750389 -2.762942 10.701690 4.571902 1.944149 -6.546177 0.199715 -0.841158 0.000000 0.000000 0.000000 -7.397471 0.237701 2.230487 -24.561425 1.378012 -18.411002 56.730633 3.381214 0.096045 -4.768347 -5.579513 5.993044 -2.311055 0.423094 0.322745 0.000000 0.000000 0.000000 -6.617174 -0.707873 1.339511 7.782570 0.158021 -2.423590 16.003972 1.854157 -0.900762 0.162038 0.799130 1.343499 0.000000 0.000000 0.000000 17.288460 2.160219 -1.116746 -5.829914 3.618024 -10.847031 -22.119675 1.978139 -5.515975 0.000000 0.000000 0.000000 16.205317 2.579915 -0.672942 0.840241 -25.209006 -11.484234 -1.489500 -3.014032 -5.802584 54.858058 -12.632593 -1.378389 138.699149 -75.314119 163.392714 0.000000 0.000000 0.000000 15.385699 2.229870 -0.874008 2.621046 20.552796 16.221419 2.124635 2.677364 -4.737167 11.782009 -0.871121 27.150678 112.149036 72.386160 -121.750909 0.000000 0.000000 0.000000 
-7.283973 97.999001 -5.556036 0.000000 0.000000 0.000000 -6.938229 -1.710812 1.336084 -7.226478 10.566414 2.339888 15.729278 -1.540810 -2.565426 9.522309 4.610584 2.144843 -6.248627 0.213608 -1.672652 0.000000 0.000000 0.000000 -6.909666 0.010991 1.366321 -26.935421 1.157048 -15.861279 58.875015 2.382396 -0.400747 -6.866314 -5.523081 3.872248 -2.648834 0.453088 0.273709 0.000000 0.000000 0.000000 -5.093714 -0.812613 0.661908 7.976718 0.381157 -1.376366 16.524369 2.314260 -1.137489 0.594127 0.708116 1.508212 0.000000 0.000000 0.000000 18.034187 2.716148 -1.321194 2.479840 2.817601 -11.253433 -19.269941 1.702057 -5.851610 0.000000 0.000000 0.000000 17.305468 3.014753 -0.692439 -0.354690 -24.178142 -15.071067 -1.766362 -3.551772 -2.942946 47.161012 -9.709688 -0.621373 151.368849 -69.078327 174.031772 0.000000 0.000000 0.000000 15.996921 2.624935 -1.159788 2.486546 22.007778 18.611594 2.661062 2.448858 -4.212736 7.449760 -4.805112 22.149790 146.506629 68.978135 -157.989352 0.000000 0.000000 0.000000 
